<svg id="mermaid-1554110400417" width="100%" xmlns="http://www.w3.org/2000/svg" height="100%" style="max-width:1250px;" viewBox="-50 -10 1250 1941"><style>


#mermaid-1554110400417 .label {
  font-family: 'trebuchet ms', verdana, arial;
  color: #333; }

#mermaid-1554110400417 .node rect,
#mermaid-1554110400417 .node circle,
#mermaid-1554110400417 .node ellipse,
#mermaid-1554110400417 .node polygon {
  fill: #ECECFF;
  stroke: #9370DB;
  stroke-width: 1px; }

#mermaid-1554110400417 .node.clickable {
  cursor: pointer; }

#mermaid-1554110400417 .arrowheadPath {
  fill: #333333; }

#mermaid-1554110400417 .edgePath .path {
  stroke: #333333;
  stroke-width: 1.5px; }

#mermaid-1554110400417 .edgeLabel {
  background-color: #e8e8e8; }

#mermaid-1554110400417 .cluster rect {
  fill: #ffffde !important;
  stroke: #aaaa33 !important;
  stroke-width: 1px !important; }

#mermaid-1554110400417 .cluster text {
  fill: #333; }

#mermaid-1554110400417 div.mermaidTooltip {
  position: absolute;
  text-align: center;
  max-width: 200px;
  padding: 2px;
  font-family: 'trebuchet ms', verdana, arial;
  font-size: 12px;
  background: #ffffde;
  border: 1px solid #aaaa33;
  border-radius: 2px;
  pointer-events: none;
  z-index: 100; }

#mermaid-1554110400417 .actor {
  stroke: #CCCCFF;
  fill: #ECECFF; }

#mermaid-1554110400417 text.actor {
  fill: black;
  stroke: none; }

#mermaid-1554110400417 .actor-line {
  stroke: grey; }

#mermaid-1554110400417 .messageLine0 {
  stroke-width: 1.5;
  stroke-dasharray: '2 2';
  stroke: #333; }

#mermaid-1554110400417 .messageLine1 {
  stroke-width: 1.5;
  stroke-dasharray: '2 2';
  stroke: #333; }

#mermaid-1554110400417 #arrowhead {
  fill: #333; }

#mermaid-1554110400417 #crosshead path {
  fill: #333 !important;
  stroke: #333 !important; }

#mermaid-1554110400417 .messageText {
  fill: #333;
  stroke: none; }

#mermaid-1554110400417 .labelBox {
  stroke: #CCCCFF;
  fill: #ECECFF; }

#mermaid-1554110400417 .labelText {
  fill: black;
  stroke: none; }

#mermaid-1554110400417 .loopText {
  fill: black;
  stroke: none; }

#mermaid-1554110400417 .loopLine {
  stroke-width: 2;
  stroke-dasharray: '2 2';
  stroke: #CCCCFF; }

#mermaid-1554110400417 .note {
  stroke: #aaaa33;
  fill: #fff5ad; }

#mermaid-1554110400417 .noteText {
  fill: black;
  stroke: none;
  font-family: 'trebuchet ms', verdana, arial;
  font-size: 14px; }

#mermaid-1554110400417 .activation0 {
  fill: #f4f4f4;
  stroke: #666; }

#mermaid-1554110400417 .activation1 {
  fill: #f4f4f4;
  stroke: #666; }

#mermaid-1554110400417 .activation2 {
  fill: #f4f4f4;
  stroke: #666; }


#mermaid-1554110400417 .section {
  stroke: none;
  opacity: 0.2; }

#mermaid-1554110400417 .section0 {
  fill: rgba(102, 102, 255, 0.49); }

#mermaid-1554110400417 .section2 {
  fill: #fff400; }

#mermaid-1554110400417 .section1,
#mermaid-1554110400417 .section3 {
  fill: white;
  opacity: 0.2; }

#mermaid-1554110400417 .sectionTitle0 {
  fill: #333; }

#mermaid-1554110400417 .sectionTitle1 {
  fill: #333; }

#mermaid-1554110400417 .sectionTitle2 {
  fill: #333; }

#mermaid-1554110400417 .sectionTitle3 {
  fill: #333; }

#mermaid-1554110400417 .sectionTitle {
  text-anchor: start;
  font-size: 11px;
  text-height: 14px; }


#mermaid-1554110400417 .grid .tick {
  stroke: lightgrey;
  opacity: 0.3;
  shape-rendering: crispEdges; }

#mermaid-1554110400417 .grid path {
  stroke-width: 0; }


#mermaid-1554110400417 .today {
  fill: none;
  stroke: red;
  stroke-width: 2px; }



#mermaid-1554110400417 .task {
  stroke-width: 2; }

#mermaid-1554110400417 .taskText {
  text-anchor: middle;
  font-size: 11px; }

#mermaid-1554110400417 .taskTextOutsideRight {
  fill: black;
  text-anchor: start;
  font-size: 11px; }

#mermaid-1554110400417 .taskTextOutsideLeft {
  fill: black;
  text-anchor: end;
  font-size: 11px; }


#mermaid-1554110400417 .taskText0,
#mermaid-1554110400417 .taskText1,
#mermaid-1554110400417 .taskText2,
#mermaid-1554110400417 .taskText3 {
  fill: white; }

#mermaid-1554110400417 .task0,
#mermaid-1554110400417 .task1,
#mermaid-1554110400417 .task2,
#mermaid-1554110400417 .task3 {
  fill: #8a90dd;
  stroke: #534fbc; }

#mermaid-1554110400417 .taskTextOutside0,
#mermaid-1554110400417 .taskTextOutside2 {
  fill: black; }

#mermaid-1554110400417 .taskTextOutside1,
#mermaid-1554110400417 .taskTextOutside3 {
  fill: black; }


#mermaid-1554110400417 .active0,
#mermaid-1554110400417 .active1,
#mermaid-1554110400417 .active2,
#mermaid-1554110400417 .active3 {
  fill: #bfc7ff;
  stroke: #534fbc; }

#mermaid-1554110400417 .activeText0,
#mermaid-1554110400417 .activeText1,
#mermaid-1554110400417 .activeText2,
#mermaid-1554110400417 .activeText3 {
  fill: black !important; }


#mermaid-1554110400417 .done0,
#mermaid-1554110400417 .done1,
#mermaid-1554110400417 .done2,
#mermaid-1554110400417 .done3 {
  stroke: grey;
  fill: lightgrey;
  stroke-width: 2; }

#mermaid-1554110400417 .doneText0,
#mermaid-1554110400417 .doneText1,
#mermaid-1554110400417 .doneText2,
#mermaid-1554110400417 .doneText3 {
  fill: black !important; }


#mermaid-1554110400417 .crit0,
#mermaid-1554110400417 .crit1,
#mermaid-1554110400417 .crit2,
#mermaid-1554110400417 .crit3 {
  stroke: #ff8888;
  fill: red;
  stroke-width: 2; }

#mermaid-1554110400417 .activeCrit0,
#mermaid-1554110400417 .activeCrit1,
#mermaid-1554110400417 .activeCrit2,
#mermaid-1554110400417 .activeCrit3 {
  stroke: #ff8888;
  fill: #bfc7ff;
  stroke-width: 2; }

#mermaid-1554110400417 .doneCrit0,
#mermaid-1554110400417 .doneCrit1,
#mermaid-1554110400417 .doneCrit2,
#mermaid-1554110400417 .doneCrit3 {
  stroke: #ff8888;
  fill: lightgrey;
  stroke-width: 2;
  cursor: pointer;
  shape-rendering: crispEdges; }

#mermaid-1554110400417 .doneCritText0,
#mermaid-1554110400417 .doneCritText1,
#mermaid-1554110400417 .doneCritText2,
#mermaid-1554110400417 .doneCritText3 {
  fill: black !important; }

#mermaid-1554110400417 .activeCritText0,
#mermaid-1554110400417 .activeCritText1,
#mermaid-1554110400417 .activeCritText2,
#mermaid-1554110400417 .activeCritText3 {
  fill: black !important; }

#mermaid-1554110400417 .titleText {
  text-anchor: middle;
  font-size: 18px;
  fill: black; }

#mermaid-1554110400417 g.classGroup text {
  fill: #9370DB;
  stroke: none;
  font-family: 'trebuchet ms', verdana, arial;
  font-size: 10px; }

#mermaid-1554110400417 g.classGroup rect {
  fill: #ECECFF;
  stroke: #9370DB; }

#mermaid-1554110400417 g.classGroup line {
  stroke: #9370DB;
  stroke-width: 1; }

#mermaid-1554110400417 .classLabel .box {
  stroke: none;
  stroke-width: 0;
  fill: #ECECFF;
  opacity: 0.5; }

#mermaid-1554110400417 .classLabel .label {
  fill: #9370DB;
  font-size: 10px; }

#mermaid-1554110400417 .relation {
  stroke: #9370DB;
  stroke-width: 1;
  fill: none; }

#mermaid-1554110400417 #compositionStart {
  fill: #9370DB;
  stroke: #9370DB;
  stroke-width: 1; }

#mermaid-1554110400417 #compositionEnd {
  fill: #9370DB;
  stroke: #9370DB;
  stroke-width: 1; }

#mermaid-1554110400417 #aggregationStart {
  fill: #ECECFF;
  stroke: #9370DB;
  stroke-width: 1; }

#mermaid-1554110400417 #aggregationEnd {
  fill: #ECECFF;
  stroke: #9370DB;
  stroke-width: 1; }

#mermaid-1554110400417 #dependencyStart {
  fill: #9370DB;
  stroke: #9370DB;
  stroke-width: 1; }

#mermaid-1554110400417 #dependencyEnd {
  fill: #9370DB;
  stroke: #9370DB;
  stroke-width: 1; }

#mermaid-1554110400417 #extensionStart {
  fill: #9370DB;
  stroke: #9370DB;
  stroke-width: 1; }

#mermaid-1554110400417 #extensionEnd {
  fill: #9370DB;
  stroke: #9370DB;
  stroke-width: 1; }

#mermaid-1554110400417 .commit-id,
#mermaid-1554110400417 .commit-msg,
#mermaid-1554110400417 .branch-label {
  fill: lightgrey;
  color: lightgrey; }
</style><style>#mermaid-1554110400417 {
    color: rgba(0, 0, 0, 0.65);
    font: ;
  }</style><g></g><g><line id="actor8004" x1="75" y1="5" x2="75" y2="1930" class="actor-line" stroke-width="0.5px" stroke="#999"></line><rect x="0" y="0" fill="#eaeaea" stroke="#666" width="150" height="65" rx="3" ry="3" class="actor"></rect><text x="75" y="32.5" style="text-anchor: middle; font-family: &quot;Open-Sans&quot;, &quot;sans-serif&quot;;" dominant-baseline="central" alignment-baseline="central" class="actor"><tspan x="75" dy="0">Blockchain Proxy</tspan></text></g><g><line id="actor8005" x1="275" y1="5" x2="275" y2="1930" class="actor-line" stroke-width="0.5px" stroke="#999"></line><rect x="200" y="0" fill="#eaeaea" stroke="#666" width="150" height="65" rx="3" ry="3" class="actor"></rect><text x="275" y="32.5" style="text-anchor: middle; font-family: &quot;Open-Sans&quot;, &quot;sans-serif&quot;;" dominant-baseline="central" alignment-baseline="central" class="actor"><tspan x="275" dy="0">Blockchain Log Processor</tspan></text></g><g><line id="actor8006" x1="475" y1="5" x2="475" y2="1930" class="actor-line" stroke-width="0.5px" stroke="#999"></line><rect x="400" y="0" fill="#eaeaea" stroke="#666" width="150" height="65" rx="3" ry="3" class="actor"></rect><text x="475" y="32.5" style="text-anchor: middle; font-family: &quot;Open-Sans&quot;, &quot;sans-serif&quot;;" dominant-baseline="central" alignment-baseline="central" class="actor"><tspan x="475" dy="0">Event Subscription</tspan></text></g><g><line id="actor8007" x1="675" y1="5" x2="675" y2="1930" class="actor-line" stroke-width="0.5px" stroke="#999"></line><rect x="600" y="0" fill="#eaeaea" stroke="#666" width="150" height="65" rx="3" ry="3" class="actor"></rect><text x="675" y="32.5" style="text-anchor: middle; font-family: &quot;Open-Sans&quot;, &quot;sans-serif&quot;;" dominant-baseline="central" alignment-baseline="central" class="actor"><tspan x="675" dy="0">Event Matcher</tspan></text></g><g><line id="actor8008" x1="875" y1="5" x2="875" y2="1930" class="actor-line" stroke-width="0.5px" stroke="#999"></line><rect x="800" y="0" fill="#eaeaea" stroke="#666" width="150" height="65" rx="3" ry="3" class="actor"></rect><text x="875" y="32.5" style="text-anchor: middle; font-family: &quot;Open-Sans&quot;, &quot;sans-serif&quot;;" dominant-baseline="central" alignment-baseline="central" class="actor"><tspan x="875" dy="0">Event Handler</tspan></text></g><g><line id="actor8009" x1="1075" y1="5" x2="1075" y2="1930" class="actor-line" stroke-width="0.5px" stroke="#999"></line><rect x="1000" y="0" fill="#eaeaea" stroke="#666" width="150" height="65" rx="3" ry="3" class="actor"></rect><text x="1075" y="32.5" style="text-anchor: middle; font-family: &quot;Open-Sans&quot;, &quot;sans-serif&quot;;" dominant-baseline="central" alignment-baseline="central" class="actor"><tspan x="1075" dy="0">Event Subscription</tspan></text></g><defs><marker id="arrowhead" refX="5" refY="2" markerWidth="6" markerHeight="4" orient="auto"><path d="M 0,0 V 4 L6,2 Z"></path></marker></defs><defs><marker id="crosshead" markerWidth="15" markerHeight="8" orient="auto" refX="16" refY="4"><path fill="black" stroke="#000000" style="stroke-dasharray: 0, 0;" stroke-width="1px" d="M 9,2 V 6 L16,4 Z"></path><path fill="none" stroke="#000000" style="stroke-dasharray: 0, 0;" stroke-width="1px" d="M 0,1 L 6,7 M 6,1 L 0,7"></path></marker></defs><g><rect x="0" y="75" fill="#EDF2AE" stroke="#666" width="150" height="36" rx="0" ry="0" class="note"></rect><text x="-4" y="99" fill="black" class="noteText"><tspan x="16" fill="black">(web3 abstraction)</tspan></text></g><g><rect x="200" y="121" fill="#EDF2AE" stroke="#666" width="150" height="36" rx="0" ry="0" class="note"></rect><text x="196" y="145" fill="black" class="noteText"><tspan x="216" fill="black">AKA Service For</tspan></text></g><g><rect x="200" y="167" fill="#EDF2AE" stroke="#666" width="150" height="36" rx="0" ry="0" class="note"></rect><text x="196" y="191" fill="black" class="noteText"><tspan x="216" fill="black">Logs in Block Range</tspan></text></g><g><text x="375" y="231" style="text-anchor: middle;" class="messageText">Has many event subscriptions</text><line x1="275" y1="238" x2="475" y2="238" class="messageLine0" stroke-width="2" stroke="black" style="fill: none;"></line></g><g><text x="575" y="266" style="text-anchor: middle;" class="messageText">Each subscription has 1 matcher</text><line x1="475" y1="273" x2="675" y2="273" class="messageLine0" stroke-width="2" stroke="black" style="fill: none;"></line></g><g><text x="675" y="301" style="text-anchor: middle;" class="messageText">Each subscription has many handlers</text><line x1="475" y1="308" x2="875" y2="308" class="messageLine0" stroke-width="2" stroke="black" style="fill: none;"></line></g><g><text x="175" y="336" style="text-anchor: middle;" class="messageText">Get All Logs For Block Range</text><line x1="275" y1="343" x2="75" y2="343" class="messageLine0" stroke-width="2" stroke="black" style="fill: none;" marker-end="url(#arrowhead)"></line></g><g><text x="175" y="371" style="text-anchor: middle;" class="messageText">Return logssequenceDiagram</text><line x1="75" y1="378" x2="275" y2="378" style="stroke-dasharray: 3, 3; fill: none;" class="messageLine1" stroke-width="2" stroke="black" marker-end="url(#arrowhead)"></line></g><g><rect x="0" y="388" fill="#EDF2AE" stroke="#666" width="150" height="36" rx="0" ry="0" class="note"></rect><text x="-4" y="412" fill="black" class="noteText"><tspan x="16" fill="black">(web3 abstraction)</tspan></text></g><g><rect x="200" y="434" fill="#EDF2AE" stroke="#666" width="150" height="36" rx="0" ry="0" class="note"></rect><text x="196" y="458" fill="black" class="noteText"><tspan x="216" fill="black">AKA Service For</tspan></text></g><g><rect x="200" y="480" fill="#EDF2AE" stroke="#666" width="150" height="36" rx="0" ry="0" class="note"></rect><text x="196" y="504" fill="black" class="noteText"><tspan x="216" fill="black">Logs in Block Range</tspan></text></g><g><text x="375" y="544" style="text-anchor: middle;" class="messageText">Has many event subscriptions</text><line x1="275" y1="551" x2="475" y2="551" class="messageLine0" stroke-width="2" stroke="black" style="fill: none;"></line></g><g><text x="575" y="579" style="text-anchor: middle;" class="messageText">Each subscription has 1 matcher</text><line x1="475" y1="586" x2="675" y2="586" class="messageLine0" stroke-width="2" stroke="black" style="fill: none;"></line></g><g><text x="675" y="614" style="text-anchor: middle;" class="messageText">Each subscription has many handlers</text><line x1="475" y1="621" x2="875" y2="621" class="messageLine0" stroke-width="2" stroke="black" style="fill: none;"></line></g><g><text x="175" y="649" style="text-anchor: middle;" class="messageText">Get All Logs For Block Range</text><line x1="275" y1="656" x2="75" y2="656" class="messageLine0" stroke-width="2" stroke="black" style="fill: none;" marker-end="url(#arrowhead)"></line></g><g><text x="175" y="684" style="text-anchor: middle;" class="messageText">Return logs</text><line x1="75" y1="691" x2="275" y2="691" style="stroke-dasharray: 3, 3; fill: none;" class="messageLine1" stroke-width="2" stroke="black" marker-end="url(#arrowhead)"></line></g><g><text x="375" y="769" style="text-anchor: middle;" class="messageText">Is Log For Event</text><line x1="275" y1="776" x2="475" y2="776" class="messageLine0" stroke-width="2" stroke="black" style="fill: none;" marker-end="url(#arrowhead)"></line></g><g><text x="575" y="804" style="text-anchor: middle;" class="messageText">Is Match?</text><line x1="475" y1="811" x2="675" y2="811" class="messageLine0" stroke-width="2" stroke="black" style="fill: none;" marker-end="url(#arrowhead)"></line></g><g><rect x="450" y="821" fill="#EDF2AE" stroke="#666" width="250" height="36" rx="0" ry="0" class="note"></rect><text x="446" y="845" fill="black" class="noteText"><tspan x="466" fill="black">address / event sig / event val</tspan></text></g><g><text x="575" y="885" style="text-anchor: middle;" class="messageText">Return Match Result</text><line x1="675" y1="892" x2="475" y2="892" style="stroke-dasharray: 3, 3; fill: none;" class="messageLine1" stroke-width="2" stroke="black" marker-end="url(#arrowhead)"></line></g><g><text x="375" y="920" style="text-anchor: middle;" class="messageText">Return Matching Result</text><line x1="475" y1="927" x2="275" y2="927" style="stroke-dasharray: 3, 3; fill: none;" class="messageLine1" stroke-width="2" stroke="black" marker-end="url(#arrowhead)"></line></g><g><text x="275" y="980" style="text-anchor: middle;" class="messageText">Add to Batch</text><path d="M 275,987 C 335,977 335,1017 275,1007" class="messageLine0" stroke-width="2" stroke="black" style="fill: none;"></path></g><g><line x1="165" y1="937" x2="385" y2="937" class="loopLine"></line><line x1="385" y1="937" x2="385" y2="1027" class="loopLine"></line><line x1="165" y1="1027" x2="385" y2="1027" class="loopLine"></line><line x1="165" y1="937" x2="165" y2="1027" class="loopLine"></line><polygon points="165,937 215,937 215,950 206.6,957 165,957" class="labelBox"></polygon><text x="172.5" y="952" fill="black" class="labelText"><tspan x="172.5" fill="black">alt</tspan></text><text x="275" y="952" style="text-anchor: middle;" fill="black" class="loopText"><tspan x="275" fill="black">[ Is Match ]</tspan></text></g><g><line x1="155" y1="726" x2="710" y2="726" class="loopLine"></line><line x1="710" y1="726" x2="710" y2="1037" class="loopLine"></line><line x1="155" y1="1037" x2="710" y2="1037" class="loopLine"></line><line x1="155" y1="726" x2="155" y2="1037" class="loopLine"></line><polygon points="155,726 205,726 205,739 196.6,746 155,746" class="labelBox"></polygon><text x="162.5" y="741" fill="black" class="labelText"><tspan x="162.5" fill="black">loop</tspan></text><text x="432.5" y="741" style="text-anchor: middle;" fill="black" class="loopText"><tspan x="432.5" fill="black">[ For Each Event Susbscription ]</tspan></text></g><g><line x1="145" y1="701" x2="720" y2="701" class="loopLine"></line><line x1="720" y1="701" x2="720" y2="1047" class="loopLine"></line><line x1="145" y1="1047" x2="720" y2="1047" class="loopLine"></line><line x1="145" y1="701" x2="145" y2="1047" class="loopLine"></line><polygon points="145,701 195,701 195,714 186.6,721 145,721" class="labelBox"></polygon><text x="152.5" y="716" fill="black" class="labelText"><tspan x="152.5" fill="black">loop</tspan></text><text x="432.5" y="716" style="text-anchor: middle;" fill="black" class="loopText"><tspan x="432.5" fill="black">[ For Each Log ]</tspan></text></g><g><text x="375" y="1100" style="text-anchor: middle;" class="messageText">Process Batch</text><line x1="275" y1="1107" x2="475" y2="1107" class="messageLine0" stroke-width="2" stroke="black" style="fill: none;" marker-end="url(#arrowhead)"></line></g><g><text x="975" y="1185" style="text-anchor: middle;" class="messageText">Invoke handler chain</text><line x1="1075" y1="1192" x2="875" y2="1192" class="messageLine0" stroke-width="2" stroke="black" style="fill: none;" marker-end="url(#arrowhead)"></line></g><g></g><g><rect x="450" y="1202" fill="#EDF2AE" stroke="#666" width="450" height="36" rx="0" ry="0" class="note"></rect><text x="446" y="1226" fill="black" class="noteText"><tspan x="466" fill="black">Aggregate / Query / Queue / Notify etc</tspan></text></g><g><line x1="440" y1="1142" x2="1085" y2="1142" class="loopLine"></line><line x1="1085" y1="1142" x2="1085" y2="1248" class="loopLine"></line><line x1="440" y1="1248" x2="1085" y2="1248" class="loopLine"></line><line x1="440" y1="1142" x2="440" y2="1248" class="loopLine"></line><polygon points="440,1142 490,1142 490,1155 481.6,1162 440,1162" class="labelBox"></polygon><text x="447.5" y="1157" fill="black" class="labelText"><tspan x="447.5" fill="black">loop</tspan></text><text x="762.5" y="1157" style="text-anchor: middle;" fill="black" class="loopText"><tspan x="762.5" fill="black">[ For Each Handler ]</tspan></text></g><g><line x1="430" y1="1117" x2="1095" y2="1117" class="loopLine"></line><line x1="1095" y1="1117" x2="1095" y2="1258" class="loopLine"></line><line x1="430" y1="1258" x2="1095" y2="1258" class="loopLine"></line><line x1="430" y1="1117" x2="430" y2="1258" class="loopLine"></line><polygon points="430,1117 480,1117 480,1130 471.6,1137 430,1137" class="labelBox"></polygon><text x="437.5" y="1132" fill="black" class="labelText"><tspan x="437.5" fill="black">loop</tspan></text><text x="762.5" y="1132" style="text-anchor: middle;" fill="black" class="loopText"><tspan x="762.5" fill="black">[ For Each Log ]</tspan></text></g><g><line x1="265" y1="1057" x2="1105" y2="1057" class="loopLine"></line><line x1="1105" y1="1057" x2="1105" y2="1268" class="loopLine"></line><line x1="265" y1="1268" x2="1105" y2="1268" class="loopLine"></line><line x1="265" y1="1057" x2="265" y2="1268" class="loopLine"></line><polygon points="265,1057 315,1057 315,1070 306.6,1077 265,1077" class="labelBox"></polygon><text x="272.5" y="1072" fill="black" class="labelText"><tspan x="272.5" fill="black">loop</tspan></text><text x="685" y="1072" style="text-anchor: middle;" fill="black" class="loopText"><tspan x="685" fill="black">[ over Each Event Subscription ]</tspan></text></g><g><text x="375" y="1346" style="text-anchor: middle;" class="messageText">Is Log For Event</text><line x1="275" y1="1353" x2="475" y2="1353" class="messageLine0" stroke-width="2" stroke="black" style="fill: none;" marker-end="url(#arrowhead)"></line></g><g><text x="575" y="1381" style="text-anchor: middle;" class="messageText">Is Match?</text><line x1="475" y1="1388" x2="675" y2="1388" class="messageLine0" stroke-width="2" stroke="black" style="fill: none;" marker-end="url(#arrowhead)"></line></g><g><rect x="450" y="1398" fill="#EDF2AE" stroke="#666" width="250" height="36" rx="0" ry="0" class="note"></rect><text x="446" y="1422" fill="black" class="noteText"><tspan x="466" fill="black">address / event sig / event val</tspan></text></g><g><text x="575" y="1462" style="text-anchor: middle;" class="messageText">Return Match Result</text><line x1="675" y1="1469" x2="475" y2="1469" style="stroke-dasharray: 3, 3; fill: none;" class="messageLine1" stroke-width="2" stroke="black" marker-end="url(#arrowhead)"></line></g><g><text x="375" y="1497" style="text-anchor: middle;" class="messageText">Return Matching Result</text><line x1="475" y1="1504" x2="275" y2="1504" style="stroke-dasharray: 3, 3; fill: none;" class="messageLine1" stroke-width="2" stroke="black" marker-end="url(#arrowhead)"></line></g><g><text x="275" y="1557" style="text-anchor: middle;" class="messageText">Add to Batch</text><path d="M 275,1564 C 335,1554 335,1594 275,1584" class="messageLine0" stroke-width="2" stroke="black" style="fill: none;"></path></g><g><line x1="165" y1="1514" x2="385" y2="1514" class="loopLine"></line><line x1="385" y1="1514" x2="385" y2="1604" class="loopLine"></line><line x1="165" y1="1604" x2="385" y2="1604" class="loopLine"></line><line x1="165" y1="1514" x2="165" y2="1604" class="loopLine"></line><polygon points="165,1514 215,1514 215,1527 206.6,1534 165,1534" class="labelBox"></polygon><text x="172.5" y="1529" fill="black" class="labelText"><tspan x="172.5" fill="black">alt</tspan></text><text x="275" y="1529" style="text-anchor: middle;" fill="black" class="loopText"><tspan x="275" fill="black">[ Is Match ]</tspan></text></g><g><line x1="155" y1="1303" x2="710" y2="1303" class="loopLine"></line><line x1="710" y1="1303" x2="710" y2="1614" class="loopLine"></line><line x1="155" y1="1614" x2="710" y2="1614" class="loopLine"></line><line x1="155" y1="1303" x2="155" y2="1614" class="loopLine"></line><polygon points="155,1303 205,1303 205,1316 196.6,1323 155,1323" class="labelBox"></polygon><text x="162.5" y="1318" fill="black" class="labelText"><tspan x="162.5" fill="black">loop</tspan></text><text x="432.5" y="1318" style="text-anchor: middle;" fill="black" class="loopText"><tspan x="432.5" fill="black">[ For Each Event Susbscription ]</tspan></text></g><g><line x1="145" y1="1278" x2="720" y2="1278" class="loopLine"></line><line x1="720" y1="1278" x2="720" y2="1624" class="loopLine"></line><line x1="145" y1="1624" x2="720" y2="1624" class="loopLine"></line><line x1="145" y1="1278" x2="145" y2="1624" class="loopLine"></line><polygon points="145,1278 195,1278 195,1291 186.6,1298 145,1298" class="labelBox"></polygon><text x="152.5" y="1293" fill="black" class="labelText"><tspan x="152.5" fill="black">loop</tspan></text><text x="432.5" y="1293" style="text-anchor: middle;" fill="black" class="loopText"><tspan x="432.5" fill="black">[ For Each Log ]</tspan></text></g><g><text x="375" y="1677" style="text-anchor: middle;" class="messageText">Process Batch</text><line x1="275" y1="1684" x2="475" y2="1684" class="messageLine0" stroke-width="2" stroke="black" style="fill: none;" marker-end="url(#arrowhead)"></line></g><g><text x="672.5" y="1762" style="text-anchor: middle;" class="messageText">Invoke handler chain</text><line x1="475" y1="1769" x2="870" y2="1769" class="messageLine0" stroke-width="2" stroke="black" style="fill: none;" marker-end="url(#arrowhead)"></line></g><g></g><g><rect x="450" y="1779" fill="#EDF2AE" stroke="#666" width="450" height="36" rx="0" ry="0" class="note"></rect><text x="446" y="1803" fill="black" class="noteText"><tspan x="466" fill="black">Aggregate / Query / Queue / Notify etc</tspan></text></g><g><line x1="440" y1="1719" x2="910" y2="1719" class="loopLine"></line><line x1="910" y1="1719" x2="910" y2="1825" class="loopLine"></line><line x1="440" y1="1825" x2="910" y2="1825" class="loopLine"></line><line x1="440" y1="1719" x2="440" y2="1825" class="loopLine"></line><polygon points="440,1719 490,1719 490,1732 481.6,1739 440,1739" class="labelBox"></polygon><text x="447.5" y="1734" fill="black" class="labelText"><tspan x="447.5" fill="black">loop</tspan></text><text x="675" y="1734" style="text-anchor: middle;" fill="black" class="loopText"><tspan x="675" fill="black">[ For Each Handler ]</tspan></text></g><g><line x1="430" y1="1694" x2="920" y2="1694" class="loopLine"></line><line x1="920" y1="1694" x2="920" y2="1835" class="loopLine"></line><line x1="430" y1="1835" x2="920" y2="1835" class="loopLine"></line><line x1="430" y1="1694" x2="430" y2="1835" class="loopLine"></line><polygon points="430,1694 480,1694 480,1707 471.6,1714 430,1714" class="labelBox"></polygon><text x="437.5" y="1709" fill="black" class="labelText"><tspan x="437.5" fill="black">loop</tspan></text><text x="675" y="1709" style="text-anchor: middle;" fill="black" class="loopText"><tspan x="675" fill="black">[ For Each Log ]</tspan></text></g><g><line x1="265" y1="1634" x2="930" y2="1634" class="loopLine"></line><line x1="930" y1="1634" x2="930" y2="1845" class="loopLine"></line><line x1="265" y1="1845" x2="930" y2="1845" class="loopLine"></line><line x1="265" y1="1634" x2="265" y2="1845" class="loopLine"></line><polygon points="265,1634 315,1634 315,1647 306.6,1654 265,1654" class="labelBox"></polygon><text x="272.5" y="1649" fill="black" class="labelText"><tspan x="272.5" fill="black">loop</tspan></text><text x="597.5" y="1649" style="text-anchor: middle;" fill="black" class="loopText"><tspan x="597.5" fill="black">[ over Each Event Subscription ]</tspan></text></g><g><rect x="0" y="1865" fill="#eaeaea" stroke="#666" width="150" height="65" rx="3" ry="3" class="actor"></rect><text x="75" y="1897.5" style="text-anchor: middle; font-family: &quot;Open-Sans&quot;, &quot;sans-serif&quot;;" dominant-baseline="central" alignment-baseline="central" class="actor"><tspan x="75" dy="0">Blockchain Proxy</tspan></text></g><g><rect x="200" y="1865" fill="#eaeaea" stroke="#666" width="150" height="65" rx="3" ry="3" class="actor"></rect><text x="275" y="1897.5" style="text-anchor: middle; font-family: &quot;Open-Sans&quot;, &quot;sans-serif&quot;;" dominant-baseline="central" alignment-baseline="central" class="actor"><tspan x="275" dy="0">Blockchain Log Processor</tspan></text></g><g><rect x="400" y="1865" fill="#eaeaea" stroke="#666" width="150" height="65" rx="3" ry="3" class="actor"></rect><text x="475" y="1897.5" style="text-anchor: middle; font-family: &quot;Open-Sans&quot;, &quot;sans-serif&quot;;" dominant-baseline="central" alignment-baseline="central" class="actor"><tspan x="475" dy="0">Event Subscription</tspan></text></g><g><rect x="600" y="1865" fill="#eaeaea" stroke="#666" width="150" height="65" rx="3" ry="3" class="actor"></rect><text x="675" y="1897.5" style="text-anchor: middle; font-family: &quot;Open-Sans&quot;, &quot;sans-serif&quot;;" dominant-baseline="central" alignment-baseline="central" class="actor"><tspan x="675" dy="0">Event Matcher</tspan></text></g><g><rect x="800" y="1865" fill="#eaeaea" stroke="#666" width="150" height="65" rx="3" ry="3" class="actor"></rect><text x="875" y="1897.5" style="text-anchor: middle; font-family: &quot;Open-Sans&quot;, &quot;sans-serif&quot;;" dominant-baseline="central" alignment-baseline="central" class="actor"><tspan x="875" dy="0">Event Handler</tspan></text></g><g><rect x="1000" y="1865" fill="#eaeaea" stroke="#666" width="150" height="65" rx="3" ry="3" class="actor"></rect><text x="1075" y="1897.5" style="text-anchor: middle; font-family: &quot;Open-Sans&quot;, &quot;sans-serif&quot;;" dominant-baseline="central" alignment-baseline="central" class="actor"><tspan x="1075" dy="0">Event Subscription</tspan></text></g></svg>